PathFileType	4	(X/Y/Z)	c:/Users/goper/Files/vsCode/490R/osim_files/C05/C05_Static.trc
DataRate	CameraRate	NumFrames	NumMarkers	Units                	OrigDataRate	OrigDataStartFrame	OrigNumFrames
250.00	250.00	4	36	mm	250.0	921	1840
                Frame#	Time	LPSIS			LASIS			LTH1			LTH2			LTH3			LTH4			LLFE			LMFE			LSH1			LSH2			LSH3			LSH4			LLMAL			LMMAL			LCAL			LMTP5			LTOE			LMTP1			RPSIS			RASIS			RTH1			RTH2			RTH3			RTH4			RLFE			RMFE			RSH1			RSH2			RSH3			RSH4			RLMAL			RMMAL			RCAL			RMTP1			RTOE			RMTP5		
		X1	Y1	Z1	X2	Y2	Z2	X3	Y3	Z3	X4	Y4	Z4	X5	Y5	Z5	X6	Y6	Z6	X7	Y7	Z7	X8	Y8	Z8	X9	Y9	Z9	X10	Y10	Z10	X11	Y11	Z11	X12	Y12	Z12	X13	Y13	Z13	X14	Y14	Z14	X15	Y15	Z15	X16	Y16	Z16	X17	Y17	Z17	X18	Y18	Z18	X19	Y19	Z19	X20	Y20	Z20	X21	Y21	Z21	X22	Y22	Z22	X23	Y23	Z23	X24	Y24	Z24	X25	Y25	Z25	X26	Y26	Z26	X27	Y27	Z27	X28	Y28	Z28	X29	Y29	Z29	X30	Y30	Z30	X31	Y31	Z31	X32	Y32	Z32	X33	Y33	Z33	X34	Y34	Z34	X35	Y35	Z35	X36	Y36	Z36

921	3.68000	-419.83966	1063.34875	413.61292	-227.36665	1022.69452	348.83942	-369.61938	714.53381	280.89563	-365.30313	651.82507	283.76025	-292.89825	712.88062	276.86978	-298.93921	651.39008	280.85336	-332.38773	542.75732	290.69214	-334.37628	522.00342	408.31949	-435.39352	370.76868	277.50473	-429.98535	327.62509	277.01413	-373.71680	370.83389	258.50385	-379.35516	327.73868	262.48108	-396.12296	97.24008	287.67941	-359.83109	108.22919	367.65036	-447.71582	68.45933	343.37668	-262.04437	40.91157	237.93073	-216.83188	65.03250	292.83987	-224.07068	45.40369	341.50281	-412.32999	1067.97595	521.31628	-219.84047	1025.57410	580.33331	-359.11575	717.25830	658.35266	-360.09958	654.22351	655.13324	-284.55139	709.91394	663.84430	-295.88123	647.93396	660.46924	-313.69806	535.35876	645.38586	-340.39874	507.20642	541.32733	-399.61832	386.86041	681.53705	-395.92972	338.55371	679.18945	-339.68842	382.34979	673.75531	-344.77341	335.96307	672.63031	-376.86667	96.42721	649.06091	-364.33322	109.51514	564.16742	-445.34323	68.66410	608.22748	-232.59969	40.77941	557.87848	-206.98665	63.68501	603.42456	-249.77589	33.77362	672.60687
922	3.68400	-419.87653	1063.35071	413.60526	-227.36658	1022.70807	348.83371	-369.55435	714.51172	280.86047	-365.28894	651.77515	283.74860	-292.91263	712.86096	276.88098	-298.95154	651.38068	280.86044	-332.39883	542.75623	290.69238	-334.38052	522.05328	408.34021	-435.38467	370.73618	277.49988	-429.99603	327.59052	277.02396	-373.72516	370.83307	258.50912	-379.36957	327.71844	262.46640	-396.14172	97.24123	287.66776	-359.84464	108.24272	367.64294	-447.74185	68.48359	343.37259	-262.03525	40.92410	237.92355	-216.85306	65.06019	292.81192	-224.21072	45.47670	341.54431	-412.35446	1068.00037	521.29456	-219.87758	1025.57935	580.32062	-359.16223	717.28564	658.35669	-360.12863	654.27283	655.13605	-284.56668	709.95111	663.84894	-295.89658	647.98169	660.48511	-313.69952	535.37103	645.37939	-340.30493	507.22464	541.26080	-399.65375	386.89148	681.53259	-395.95569	338.58020	679.17480	-339.68317	382.36469	673.76385	-344.78476	335.98523	672.63019	-376.88361	96.45343	649.06799	-364.32428	109.50768	564.15594	-445.34467	68.67344	608.23114	-232.60416	40.78644	557.86334	-207.02379	63.67056	603.44482	-249.78159	33.80136	672.61420
923	3.68800	-419.85306	1063.34766	413.61301	-227.37601	1022.69385	348.79730	-369.57877	714.47101	280.86133	-365.28012	651.74670	283.75671	-292.96689	712.81403	276.81631	-298.97025	651.35126	280.82074	-332.40826	542.73755	290.66977	-334.38089	522.07086	408.32080	-435.36063	370.70248	277.47659	-429.98654	327.51773	276.95926	-373.73749	370.80801	258.48495	-379.39075	327.69586	262.45679	-396.15515	97.23569	287.64804	-359.82547	108.27240	367.60919	-447.75330	68.50923	343.34961	-262.03043	40.92651	237.88943	-216.84055	65.04283	292.77261	-224.21233	45.49076	341.51852	-412.36963	1068.04736	521.29175	-219.85469	1025.57300	580.28009	-359.16711	717.30029	658.33179	-360.13028	654.29669	655.11700	-284.57224	709.97839	663.82251	-295.86688	648.01770	660.44556	-313.86978	535.28522	645.19153	-340.31659	507.21671	541.25391	-399.66116	386.91693	681.52130	-395.97491	338.59305	679.16663	-339.65930	382.40259	673.71222	-344.77411	336.00897	672.60522	-376.90533	96.47697	649.04504	-364.34579	109.49722	564.14014	-445.33270	68.64245	608.17444	-232.62929	40.73522	557.84198	-207.00226	63.66955	603.41180	-249.68559	33.98617	672.71240
924	3.69200	-419.87665	1063.34375	413.60028	-227.37514	1022.67944	348.76230	-369.54266	714.45959	280.81281	-365.26395	651.72052	283.71054	-292.99051	712.78540	276.79971	-298.96210	651.31879	280.79703	-332.41119	542.72327	290.64859	-334.35596	522.08795	408.29544	-435.36469	370.68872	277.44168	-430.01498	327.45599	276.92255	-373.73978	370.79422	258.46817	-379.38513	327.66943	262.44061	-396.15787	97.22855	287.61935	-359.83020	108.28859	367.58948	-447.80209	68.53402	343.33878	-262.05405	40.91206	237.86459	-216.84084	65.05434	292.72150	-223.96710	45.51948	341.32675	-412.35095	1068.03992	521.26044	-219.85892	1025.56995	580.24701	-359.14688	717.31024	658.32062	-360.08215	654.33173	655.08575	-284.52936	710.00946	663.80963	-295.83130	648.05371	660.43451	-313.85922	535.29724	645.16290	-340.41452	507.16507	541.28101	-399.64929	386.93857	681.51154	-395.94577	338.59686	679.14240	-339.62192	382.43326	673.68079	-344.75168	336.04709	672.55603	-376.88364	96.50662	649.01056	-364.35422	109.46263	564.12616	-445.32309	68.62243	608.10864	-232.65749	40.70060	557.82086	-207.01147	63.66495	603.37848	-249.68419	33.98835	672.67523
